<?xml version="1.0" encoding="UTF-8" standalone="no"?>
<svg
   xmlns:dc="http://purl.org/dc/elements/1.1/"
   xmlns:cc="http://creativecommons.org/ns#"
   xmlns:rdf="http://www.w3.org/1999/02/22-rdf-syntax-ns#"
   xmlns:svg="http://www.w3.org/2000/svg"
   xmlns="http://www.w3.org/2000/svg"
   xmlns:sodipodi="http://sodipodi.sourceforge.net/DTD/sodipodi-0.dtd"
   xmlns:inkscape="http://www.inkscape.org/namespaces/inkscape"
   version="1.1"
   viewBox="0 0 500 500"
   fill="none"
   stroke="none"
   stroke-linecap="square"
   stroke-miterlimit="10"
   id="svg212"
   sodipodi:docname="logo-square.svg"
   width="500"
   height="500"
   inkscape:export-filename="/Users/kearnes/git/ord-schema/logos/logo-square.png"
   inkscape:export-xdpi="96"
   inkscape:export-ydpi="96"
   inkscape:version="1.0.1 (c497b03c, 2020-09-10)">
  <metadata
     id="metadata218">
    <rdf:RDF>
      <cc:Work
         rdf:about="">
        <dc:format>image/svg+xml</dc:format>
        <dc:type
           rdf:resource="http://purl.org/dc/dcmitype/StillImage" />
        <dc:title></dc:title>
      </cc:Work>
    </rdf:RDF>
  </metadata>
  <defs
     id="defs216" />
  <sodipodi:namedview
     pagecolor="#ffffff"
     bordercolor="#666666"
     borderopacity="1"
     objecttolerance="10"
     gridtolerance="10"
     guidetolerance="10"
     inkscape:pageopacity="0"
     inkscape:pageshadow="2"
     inkscape:window-width="1488"
     inkscape:window-height="885"
     id="namedview214"
     showgrid="false"
     inkscape:zoom="1.053"
     inkscape:cx="334.283"
     inkscape:cy="200"
     inkscape:window-x="2022"
     inkscape:window-y="48"
     inkscape:window-maximized="0"
     inkscape:current-layer="svg212" />
  <clipPath
     id="p.0">
    <path
       d="M 0,0 H 1000 V 400 H 0 Z"
       clip-rule="nonzero"
       id="path141" />
  </clipPath>
  <g
     clip-path="url(#p.0)"
     id="g210"
     transform="matrix(0.5,0,0,0.5,0,150)">
    <path
       fill="#000000"
       fill-opacity="0"
       d="M 0,0 H 1000 V 400 H 0 Z"
       fill-rule="evenodd"
       id="path144" />
    <path
       fill="#000000"
       fill-opacity="0"
       d="M 0,2.6246718e-7 H 1000 V 400 H 0 Z"
       fill-rule="evenodd"
       id="path146" />
    <path
       fill="#3c78d8"
       d="m 199.24335,375.46872 q -48.0625,0 -87.26563,-23.32812 Q 72.7746,328.79685 50.36835,288.67185 27.977725,248.53122 27.977725,200.93747 q 0,-47.59375 22.390625,-87.71875 22.40625,-40.140625 61.60937,-63.46875 39.20313,-23.34375 87.26563,-23.34375 48.0625,0 87.25,23.34375 39.20312,23.328125 61.60937,63.46875 22.40625,40.125 22.40625,87.71875 0,47.59375 -22.40625,87.73438 -22.40625,40.125 -61.60937,63.46875 -39.1875,23.32812 -87.25,23.32812 z m 0,-37.79687 q 35.92187,0 66.01562,-17.5 30.10938,-17.5 47.60938,-48.53125 17.5,-31.03125 17.5,-70.70313 0,-39.67187 -17.5,-70.70312 -17.5,-31.031255 -47.60938,-48.531255 -30.09375,-17.5 -66.01562,-17.5 -35.9375,0 -66.04688,17.5 -30.09375,17.5 -47.593745,48.531255 -17.5,31.03125 -17.5,70.70312 0,39.67188 17.5,70.70313 17.499995,31.03125 47.593745,48.53125 30.10938,17.5 66.04688,17.5 z M 428.83057,33.874965 h 112.9375 q 27.53125,0 51.32812,12.609375 23.79688,12.59375 38.03125,35.234375 14.23438,22.625005 14.23438,51.093755 0,23.32812 -10.5,43.39062 -10.5,20.0625 -28.9375,33.60938 -18.42188,13.53125 -40.82813,18.1875 l -0.9375,1.40625 94.26563,136.73438 v 1.85937 h -46.65625 l -91,-136.26562 H 468.50244 V 367.99997 H 428.83057 V 33.87497 Z M 539.43994,194.87497 q 17.26563,0 32.42188,-7.9375 15.17187,-7.9375 24.26562,-22.17188 9.10938,-14.23437 9.10938,-31.95312 0,-15.40625 -7.9375,-29.40625 -7.9375,-14.000005 -22.17188,-22.85938 -14.23437,-8.875 -32.89062,-8.875 H 468.50244 V 194.87497 Z M 702.29108,33.874965 h 100.79688 q 51.34375,0 89.60937,21.234375 38.26563,21.234375 58.79688,59.03125 20.53125,37.79688 20.53125,86.79688 0,49 -20.53125,86.79687 -20.53125,37.79688 -58.79688,59.03125 -38.26562,21.23438 -89.60937,21.23438 H 702.29108 Z M 803.08796,330.20309 q 59.26562,0 94.03125,-34.0625 34.76562,-34.07813 34.76562,-95.20313 0,-61.125 -34.76562,-95.1875 -34.76563,-34.078125 -94.03125,-34.078125 h -61.125 V 330.20309 Z"
       fill-rule="nonzero"
       id="path148" />
    <path
       fill="#000000"
       fill-opacity="0"
       d="M 109.98914,149.19994 V 250.92092"
       fill-rule="evenodd"
       id="path150" />
    <path
       stroke="#000000"
       stroke-width="4"
       stroke-miterlimit="8"
       stroke-linecap="butt"
       d="M 109.98914,149.19994 V 250.92092"
       fill-rule="evenodd"
       id="path152" />
    <path
       fill="#000000"
       fill-opacity="0"
       d="M 289.83917,149.19994 V 250.92092"
       fill-rule="evenodd"
       id="path154" />
    <path
       stroke="#000000"
       stroke-width="4"
       stroke-miterlimit="8"
       stroke-linecap="butt"
       d="M 289.83917,149.19994 V 250.92092"
       fill-rule="evenodd"
       id="path156" />
    <path
       fill="#000000"
       fill-opacity="0"
       d="M 275.51712,149.19994 V 250.92092"
       fill-rule="evenodd"
       id="path158" />
    <path
       stroke="#000000"
       stroke-width="4"
       stroke-miterlimit="8"
       stroke-linecap="butt"
       d="M 275.51712,149.19994 V 250.92092"
       fill-rule="evenodd"
       id="path160" />
    <path
       fill="#000000"
       fill-opacity="0"
       d="m 270.09378,152.24504 c -23.4717,2.87161 -56.52902,-10.86446 -62.25372,-33.30241"
       fill-rule="evenodd"
       id="path162" />
    <path
       stroke="#000000"
       stroke-width="4"
       stroke-miterlimit="8"
       stroke-linecap="butt"
       d="m 270.09378,152.24504 c -23.4717,2.87161 -56.52902,-10.86446 -62.25372,-33.30241"
       fill-rule="evenodd"
       id="path164" />
    <path
       fill="#000000"
       fill-opacity="0"
       d="m 205.66855,133.52365 c 0,-5.10643 -1.69925,-14.92685 3.52406,-14.92685 5.08907,0 9.859,2.98012 14.09267,5.74082"
       fill-rule="evenodd"
       id="path166" />
    <path
       stroke="#000000"
       stroke-width="4"
       stroke-miterlimit="8"
       stroke-linecap="butt"
       d="m 205.66855,133.52365 c 0,-5.10643 -1.69925,-14.92685 3.52406,-14.92685 5.08907,0 9.859,2.98012 14.09267,5.74082"
       fill-rule="evenodd"
       id="path168" />
    <path
       fill="#000000"
       fill-opacity="0"
       d="m 210.66853,292.4664 c 23.4717,2.87161 56.52904,-10.86447 62.25374,-33.30243"
       fill-rule="evenodd"
       id="path170" />
    <path
       stroke="#000000"
       stroke-width="4"
       stroke-miterlimit="8"
       stroke-linecap="butt"
       d="m 210.66853,292.4664 c 23.4717,2.87161 56.52904,-10.86447 62.25374,-33.30243"
       fill-rule="evenodd"
       id="path172" />
    <path
       fill="#000000"
       fill-opacity="0"
       d="m 275.76962,272.9423 c 0,-5.10642 1.69925,-14.92685 -3.52408,-14.92685 -5.08905,0 -9.85898,2.98013 -14.09265,5.74085"
       fill-rule="evenodd"
       id="path174" />
    <path
       stroke="#000000"
       stroke-width="4"
       stroke-miterlimit="8"
       stroke-linecap="butt"
       d="m 275.76962,272.9423 c 0,-5.10642 1.69925,-14.92685 -3.52408,-14.92685 -5.08905,0 -9.85898,2.98013 -14.09265,5.74085"
       fill-rule="evenodd"
       id="path176" />
    <path
       fill="#000000"
       fill-opacity="0"
       d="m 128.71368,212.95839 c -4.52341,-2.5533 -14.07209,-6.02515 -11.46092,-10.44699 2.54404,-4.3082 7.56843,-6.85611 12.13038,-9.05979"
       fill-rule="evenodd"
       id="path178" />
    <path
       stroke="#000000"
       stroke-width="4"
       stroke-miterlimit="8"
       stroke-linecap="butt"
       d="m 128.71368,212.95839 c -4.52341,-2.5533 -14.07209,-6.02515 -11.46092,-10.44699 2.54404,-4.3082 7.56843,-6.85611 12.13038,-9.05979"
       fill-rule="evenodd"
       id="path180" />
    <path
       fill="#000000"
       fill-opacity="0"
       d="m 162.87758,141.52089 c 8.2276,24.13039 -18.5051,59.66377 -44.32318,62.81053"
       fill-rule="evenodd"
       id="path182" />
    <path
       stroke="#000000"
       stroke-width="4"
       stroke-miterlimit="8"
       stroke-linecap="butt"
       d="m 162.87758,141.52089 c 8.2276,24.13039 -18.5051,59.66377 -44.32318,62.81053"
       fill-rule="evenodd"
       id="path184" />
    <path
       fill="#000000"
       fill-opacity="0"
       d="m 117.15241,238.61443 90.09377,50.86733"
       fill-rule="evenodd"
       id="path186" />
    <path
       stroke="#000000"
       stroke-width="4"
       stroke-miterlimit="8"
       stroke-linecap="butt"
       d="m 117.15241,238.61443 90.09377,50.86733"
       fill-rule="evenodd"
       id="path188" />
    <path
       fill="#000000"
       fill-opacity="0"
       d="m 109.99139,250.74611 90.09377,50.86732"
       fill-rule="evenodd"
       id="path190" />
    <path
       stroke="#000000"
       stroke-width="4"
       stroke-miterlimit="8"
       stroke-linecap="butt"
       d="m 109.99139,250.74611 90.09377,50.86732"
       fill-rule="evenodd"
       id="path192" />
    <path
       fill="#000000"
       fill-opacity="0"
       d="M 109.99139,149.25577 200.08516,98.388445"
       fill-rule="evenodd"
       id="path194" />
    <path
       stroke="#000000"
       stroke-width="4"
       stroke-miterlimit="8"
       stroke-linecap="butt"
       d="M 109.99139,149.25577 200.08516,98.388445"
       fill-rule="evenodd"
       id="path196" />
    <path
       fill="#000000"
       fill-opacity="0"
       d="m 117.15241,161.38745 90.09377,-50.86732"
       fill-rule="evenodd"
       id="path198" />
    <path
       stroke="#000000"
       stroke-width="4"
       stroke-miterlimit="8"
       stroke-linecap="butt"
       d="m 117.15241,161.38745 90.09377,-50.86732"
       fill-rule="evenodd"
       id="path200" />
    <path
       fill="#000000"
       d="m 108.35682,250.88518 v 0 c 0,-0.88286 0.731,-1.59857 1.63273,-1.59857 v 0 c 0.43302,0 0.84831,0.16842 1.15451,0.46821 0.3062,0.29979 0.47822,0.70639 0.47822,1.13036 v 0 c 0,0.88287 -0.73101,1.59857 -1.63273,1.59857 v 0 c -0.90173,0 -1.63273,-0.7157 -1.63273,-1.59857 z"
       fill-rule="evenodd"
       id="path202" />
    <path
       stroke="#000000"
       stroke-width="1"
       stroke-linejoin="round"
       stroke-linecap="butt"
       d="m 108.35682,250.88518 v 0 c 0,-0.88286 0.731,-1.59857 1.63273,-1.59857 v 0 c 0.43302,0 0.84831,0.16842 1.15451,0.46821 0.3062,0.29979 0.47822,0.70639 0.47822,1.13036 v 0 c 0,0.88287 -0.73101,1.59857 -1.63273,1.59857 v 0 c -0.90173,0 -1.63273,-0.7157 -1.63273,-1.59857 z"
       fill-rule="evenodd"
       id="path204" />
    <path
       fill="#000000"
       d="m 108.35682,149.08789 v 0 c 0,-0.88287 0.731,-1.59857 1.63273,-1.59857 v 0 c 0.43302,0 0.84831,0.16841 1.15451,0.4682 0.3062,0.29979 0.47822,0.70639 0.47822,1.13037 v 0 c 0,0.88286 -0.73101,1.59856 -1.63273,1.59856 v 0 c -0.90173,0 -1.63273,-0.7157 -1.63273,-1.59856 z"
       fill-rule="evenodd"
       id="path206" />
    <path
       stroke="#000000"
       stroke-width="1"
       stroke-linejoin="round"
       stroke-linecap="butt"
       d="m 108.35682,149.08789 v 0 c 0,-0.88287 0.731,-1.59857 1.63273,-1.59857 v 0 c 0.43302,0 0.84831,0.16841 1.15451,0.4682 0.3062,0.29979 0.47822,0.70639 0.47822,1.13037 v 0 c 0,0.88286 -0.73101,1.59856 -1.63273,1.59856 v 0 c -0.90173,0 -1.63273,-0.7157 -1.63273,-1.59856 z"
       fill-rule="evenodd"
       id="path208" />
  </g>
</svg>
