<svg version="1.1" viewBox="0.0 0.0 1000.0 400.0" fill="none" stroke="none" stroke-linecap="square" stroke-miterlimit="10" xmlns:xlink="http://www.w3.org/1999/xlink" xmlns="http://www.w3.org/2000/svg"><clipPath id="p.0"><path d="m0 0l1000.0 0l0 400.0l-1000.0 0l0 -400.0z" clip-rule="nonzero"/></clipPath><g clip-path="url(#p.0)"><path fill="#000000" fill-opacity="0.0" d="m0 0l1000.0 0l0 400.0l-1000.0 0z" fill-rule="evenodd"/><path fill="#000000" fill-opacity="0.0" d="m0 2.6246718E-7l1000.0 0l0 400.0l-1000.0 0z" fill-rule="evenodd"/><path fill="#3c78d8" d="m199.24335 375.46872q-48.0625 0 -87.265625 -23.328125q-39.203125 -23.34375 -61.609375 -63.46875q-22.390625 -40.140625 -22.390625 -87.734375q0 -47.59375 22.390625 -87.71875q22.40625 -40.140625 61.609375 -63.46875q39.203125 -23.34375 87.265625 -23.34375q48.0625 0 87.25 23.34375q39.203125 23.328125 61.609375 63.46875q22.40625 40.125 22.40625 87.71875q0 47.59375 -22.40625 87.734375q-22.40625 40.125 -61.609375 63.46875q-39.1875 23.328125 -87.25 23.328125zm0 -37.796875q35.921875 0 66.015625 -17.5q30.109375 -17.5 47.609375 -48.53125q17.5 -31.03125 17.5 -70.703125q0 -39.671875 -17.5 -70.703125q-17.5 -31.03125 -47.609375 -48.53125q-30.09375 -17.5 -66.015625 -17.5q-35.9375 0 -66.046875 17.5q-30.09375 17.5 -47.59375 48.53125q-17.5 31.03125 -17.5 70.703125q0 39.671875 17.5 70.703125q17.5 31.03125 47.59375 48.53125q30.109375 17.5 66.046875 17.5zm229.58722 -303.79688l112.9375 0q27.53125 0 51.328125 12.609375q23.796875 12.59375 38.03125 35.234375q14.234375 22.625 14.234375 51.09375q0 23.328125 -10.5 43.390625q-10.5 20.0625 -28.9375 33.609375q-18.421875 13.53125 -40.828125 18.1875l-0.9375 1.40625l94.265625 136.73438l0 1.859375l-46.65625 0l-91.0 -136.26562l-52.265625 0l0 136.26562l-39.671875 0l0 -334.125zm110.609375 161.0q17.265625 0 32.421875 -7.9375q15.171875 -7.9375 24.265625 -22.171875q9.109375 -14.234375 9.109375 -31.953125q0 -15.40625 -7.9375 -29.40625q-7.9375 -14.0 -22.171875 -22.859375q-14.234375 -8.875 -32.890625 -8.875l-73.734375 0l0 123.203125l70.9375 0zm162.85114 -161.0l100.796875 0q51.34375 0 89.609375 21.234375q38.265625 21.234375 58.796875 59.03125q20.53125 37.796875 20.53125 86.796875q0 49.0 -20.53125 86.796875q-20.53125 37.796875 -58.796875 59.03125q-38.265625 21.234375 -89.609375 21.234375l-100.796875 0l0 -334.125zm100.796875 296.32812q59.265625 0 94.03125 -34.0625q34.765625 -34.078125 34.765625 -95.203125q0 -61.125 -34.765625 -95.1875q-34.765625 -34.078125 -94.03125 -34.078125l-61.125 0l0 258.53125l61.125 0z" fill-rule="nonzero"/><path fill="#000000" fill-opacity="0.0" d="m109.989136 149.19994l0 101.72098" fill-rule="evenodd"/><path stroke="#000000" stroke-width="4.0" stroke-miterlimit="8.0" stroke-linecap="butt" d="m109.989136 149.19994l0 101.72098" fill-rule="evenodd"/><path fill="#000000" fill-opacity="0.0" d="m289.83917 149.19994l0 101.72098" fill-rule="evenodd"/><path stroke="#000000" stroke-width="4.0" stroke-miterlimit="8.0" stroke-linecap="butt" d="m289.83917 149.19994l0 101.72098" fill-rule="evenodd"/><path fill="#000000" fill-opacity="0.0" d="m275.51712 149.19994l0 101.72098" fill-rule="evenodd"/><path stroke="#000000" stroke-width="4.0" stroke-miterlimit="8.0" stroke-linecap="butt" d="m275.51712 149.19994l0 101.72098" fill-rule="evenodd"/><path fill="#000000" fill-opacity="0.0" d="m270.09378 152.24504c-23.471695 2.8716125 -56.529022 -10.864456 -62.253723 -33.302414" fill-rule="evenodd"/><path stroke="#000000" stroke-width="4.0" stroke-miterlimit="8.0" stroke-linecap="butt" d="m270.09378 152.24504c-23.471695 2.8716125 -56.529022 -10.864456 -62.253723 -33.302414" fill-rule="evenodd"/><path fill="#000000" fill-opacity="0.0" d="m205.66855 133.52365c0 -5.10643 -1.6992493 -14.926849 3.524063 -14.926849c5.0890656 0 9.858994 2.9801178 14.092667 5.740822" fill-rule="evenodd"/><path stroke="#000000" stroke-width="4.0" stroke-miterlimit="8.0" stroke-linecap="butt" d="m205.66855 133.52365c0 -5.10643 -1.6992493 -14.926849 3.524063 -14.926849c5.0890656 0 9.858994 2.9801178 14.092667 5.740822" fill-rule="evenodd"/><path fill="#000000" fill-opacity="0.0" d="m210.66853 292.4664c23.471695 2.8716125 56.529037 -10.864471 62.25374 -33.30243" fill-rule="evenodd"/><path stroke="#000000" stroke-width="4.0" stroke-miterlimit="8.0" stroke-linecap="butt" d="m210.66853 292.4664c23.471695 2.8716125 56.529037 -10.864471 62.25374 -33.30243" fill-rule="evenodd"/><path fill="#000000" fill-opacity="0.0" d="m275.76962 272.9423c0 -5.106415 1.6992493 -14.926849 -3.5240784 -14.926849c-5.0890503 0 -9.858978 2.980133 -14.092651 5.7408447" fill-rule="evenodd"/><path stroke="#000000" stroke-width="4.0" stroke-miterlimit="8.0" stroke-linecap="butt" d="m275.76962 272.9423c0 -5.106415 1.6992493 -14.926849 -3.5240784 -14.926849c-5.0890503 0 -9.858978 2.980133 -14.092651 5.7408447" fill-rule="evenodd"/><path fill="#000000" fill-opacity="0.0" d="m128.71368 212.95839c-4.5234146 -2.553299 -14.07209 -6.0251465 -11.460922 -10.446991c2.5440445 -4.308197 7.5684357 -6.8561096 12.130386 -9.059784" fill-rule="evenodd"/><path stroke="#000000" stroke-width="4.0" stroke-miterlimit="8.0" stroke-linecap="butt" d="m128.71368 212.95839c-4.5234146 -2.553299 -14.07209 -6.0251465 -11.460922 -10.446991c2.5440445 -4.308197 7.5684357 -6.8561096 12.130386 -9.059784" fill-rule="evenodd"/><path fill="#000000" fill-opacity="0.0" d="m162.87758 141.52089c8.2276 24.130386 -18.505096 59.663773 -44.32318 62.81053" fill-rule="evenodd"/><path stroke="#000000" stroke-width="4.0" stroke-miterlimit="8.0" stroke-linecap="butt" d="m162.87758 141.52089c8.2276 24.130386 -18.505096 59.663773 -44.32318 62.81053" fill-rule="evenodd"/><path fill="#000000" fill-opacity="0.0" d="m117.15241 238.61443l90.09377 50.867325" fill-rule="evenodd"/><path stroke="#000000" stroke-width="4.0" stroke-miterlimit="8.0" stroke-linecap="butt" d="m117.15241 238.61443l90.09377 50.867325" fill-rule="evenodd"/><path fill="#000000" fill-opacity="0.0" d="m109.99139 250.74611l90.09377 50.867325" fill-rule="evenodd"/><path stroke="#000000" stroke-width="4.0" stroke-miterlimit="8.0" stroke-linecap="butt" d="m109.99139 250.74611l90.09377 50.867325" fill-rule="evenodd"/><path fill="#000000" fill-opacity="0.0" d="m109.99139 149.25577l90.09377 -50.867325" fill-rule="evenodd"/><path stroke="#000000" stroke-width="4.0" stroke-miterlimit="8.0" stroke-linecap="butt" d="m109.99139 149.25577l90.09377 -50.867325" fill-rule="evenodd"/><path fill="#000000" fill-opacity="0.0" d="m117.15241 161.38745l90.09377 -50.867317" fill-rule="evenodd"/><path stroke="#000000" stroke-width="4.0" stroke-miterlimit="8.0" stroke-linecap="butt" d="m117.15241 161.38745l90.09377 -50.867317" fill-rule="evenodd"/><path fill="#000000" d="m108.35682 250.88518l0 0c0 -0.8828583 0.7309952 -1.5985718 1.6327286 -1.5985718l0 0c0.43302155 0 0.8483124 0.16842651 1.1545105 0.46821594c0.30619812 0.29978943 0.47821808 0.7063904 0.47821808 1.1303558l0 0c0 0.88287354 -0.7310028 1.5985718 -1.6327286 1.5985718l0 0c-0.9017334 0 -1.6327286 -0.71569824 -1.6327286 -1.5985718z" fill-rule="evenodd"/><path stroke="#000000" stroke-width="1.0" stroke-linejoin="round" stroke-linecap="butt" d="m108.35682 250.88518l0 0c0 -0.8828583 0.7309952 -1.5985718 1.6327286 -1.5985718l0 0c0.43302155 0 0.8483124 0.16842651 1.1545105 0.46821594c0.30619812 0.29978943 0.47821808 0.7063904 0.47821808 1.1303558l0 0c0 0.88287354 -0.7310028 1.5985718 -1.6327286 1.5985718l0 0c-0.9017334 0 -1.6327286 -0.71569824 -1.6327286 -1.5985718z" fill-rule="evenodd"/><path fill="#000000" d="m108.35682 149.08789l0 0c0 -0.88287354 0.7309952 -1.5985718 1.6327286 -1.5985718l0 0c0.43302155 0 0.8483124 0.16841125 1.1545105 0.46820068c0.30619812 0.29978943 0.47821808 0.7063904 0.47821808 1.1303711l0 0c0 0.8828583 -0.7310028 1.5985565 -1.6327286 1.5985565l0 0c-0.9017334 0 -1.6327286 -0.71569824 -1.6327286 -1.5985565z" fill-rule="evenodd"/><path stroke="#000000" stroke-width="1.0" stroke-linejoin="round" stroke-linecap="butt" d="m108.35682 149.08789l0 0c0 -0.88287354 0.7309952 -1.5985718 1.6327286 -1.5985718l0 0c0.43302155 0 0.8483124 0.16841125 1.1545105 0.46820068c0.30619812 0.29978943 0.47821808 0.7063904 0.47821808 1.1303711l0 0c0 0.8828583 -0.7310028 1.5985565 -1.6327286 1.5985565l0 0c-0.9017334 0 -1.6327286 -0.71569824 -1.6327286 -1.5985565z" fill-rule="evenodd"/></g></svg>