<svg version="1.1" viewBox="0.0 0.0 399.3884514435696 400.0" fill="none" stroke="none" stroke-linecap="square" stroke-miterlimit="10" xmlns:xlink="http://www.w3.org/1999/xlink" xmlns="http://www.w3.org/2000/svg"><clipPath id="p.0"><path d="m0 0l399.38846 0l0 400.0l-399.38846 0l0 -400.0z" clip-rule="nonzero"/></clipPath><g clip-path="url(#p.0)"><path fill="#000000" fill-opacity="0.0" d="m0 0l399.38846 0l0 400.0l-399.38846 0z" fill-rule="evenodd"/><path fill="#000000" fill-opacity="0.0" d="m0 0l399.40158 0l0 400.0l-399.40158 0z" fill-rule="evenodd"/><path fill="#3c78d8" d="m199.70406 375.46872q-48.0625 0 -87.265625 -23.328125q-39.203125 -23.34375 -61.609375 -63.46875q-22.390625 -40.140625 -22.390625 -87.734375q0 -47.59375 22.390625 -87.71875q22.40625 -40.140625 61.609375 -63.46875q39.203125 -23.34375 87.265625 -23.34375q48.0625 0 87.249985 23.34375q39.203125 23.328125 61.609375 63.46875q22.40625 40.125 22.40625 87.71875q0 47.59375 -22.40625 87.734375q-22.40625 40.125 -61.609375 63.46875q-39.187485 23.328125 -87.249985 23.328125zm0 -37.796875q35.921875 0 66.01561 -17.5q30.109375 -17.5 47.609375 -48.53125q17.5 -31.03125 17.5 -70.703125q0 -39.671875 -17.5 -70.703125q-17.5 -31.03125 -47.609375 -48.53125q-30.093735 -17.5 -66.01561 -17.5q-35.9375 0 -66.046875 17.5q-30.09375 17.5 -47.59375 48.53125q-17.5 31.03125 -17.5 70.703125q0 39.671875 17.5 70.703125q17.5 31.03125 47.59375 48.53125q30.109375 17.5 66.046875 17.5z" fill-rule="nonzero"/><path fill="#000000" fill-opacity="0.0" d="m110.58493 149.19862l0 101.72098" fill-rule="evenodd"/><path stroke="#000000" stroke-width="4.0" stroke-miterlimit="8.0" stroke-linecap="butt" d="m110.58493 149.19862l0 101.72098" fill-rule="evenodd"/><path fill="#000000" fill-opacity="0.0" d="m290.43497 149.19862l0 101.72098" fill-rule="evenodd"/><path stroke="#000000" stroke-width="4.0" stroke-miterlimit="8.0" stroke-linecap="butt" d="m290.43497 149.19862l0 101.72098" fill-rule="evenodd"/><path fill="#000000" fill-opacity="0.0" d="m276.1129 149.19862l0 101.72098" fill-rule="evenodd"/><path stroke="#000000" stroke-width="4.0" stroke-miterlimit="8.0" stroke-linecap="butt" d="m276.1129 149.19862l0 101.72098" fill-rule="evenodd"/><path fill="#000000" fill-opacity="0.0" d="m270.68958 152.24373c-23.47168 2.8716125 -56.529022 -10.864456 -62.253708 -33.302414" fill-rule="evenodd"/><path stroke="#000000" stroke-width="4.0" stroke-miterlimit="8.0" stroke-linecap="butt" d="m270.68958 152.24373c-23.47168 2.8716125 -56.529022 -10.864456 -62.253708 -33.302414" fill-rule="evenodd"/><path fill="#000000" fill-opacity="0.0" d="m206.26434 133.52234c0 -5.10643 -1.6992493 -14.926849 3.5240784 -14.926849c5.0890503 0 9.858978 2.9801178 14.092667 5.740822" fill-rule="evenodd"/><path stroke="#000000" stroke-width="4.0" stroke-miterlimit="8.0" stroke-linecap="butt" d="m206.26434 133.52234c0 -5.10643 -1.6992493 -14.926849 3.5240784 -14.926849c5.0890503 0 9.858978 2.9801178 14.092667 5.740822" fill-rule="evenodd"/><path fill="#000000" fill-opacity="0.0" d="m211.26434 292.4651c23.471695 2.8716125 56.529022 -10.864471 62.253723 -33.30243" fill-rule="evenodd"/><path stroke="#000000" stroke-width="4.0" stroke-miterlimit="8.0" stroke-linecap="butt" d="m211.26434 292.4651c23.471695 2.8716125 56.529022 -10.864471 62.253723 -33.30243" fill-rule="evenodd"/><path fill="#000000" fill-opacity="0.0" d="m276.36542 272.94098c0 -5.106415 1.6992798 -14.926849 -3.5240479 -14.926849c-5.089081 0 -9.858978 2.980133 -14.092682 5.7408447" fill-rule="evenodd"/><path stroke="#000000" stroke-width="4.0" stroke-miterlimit="8.0" stroke-linecap="butt" d="m276.36542 272.94098c0 -5.106415 1.6992798 -14.926849 -3.5240479 -14.926849c-5.089081 0 -9.858978 2.980133 -14.092682 5.7408447" fill-rule="evenodd"/><path fill="#000000" fill-opacity="0.0" d="m129.3095 212.95708c-4.5234222 -2.553299 -14.072098 -6.0251465 -11.46093 -10.446991c2.5440445 -4.308197 7.568428 -6.8561096 12.130379 -9.059784" fill-rule="evenodd"/><path stroke="#000000" stroke-width="4.0" stroke-miterlimit="8.0" stroke-linecap="butt" d="m129.3095 212.95708c-4.5234222 -2.553299 -14.072098 -6.0251465 -11.46093 -10.446991c2.5440445 -4.308197 7.568428 -6.8561096 12.130379 -9.059784" fill-rule="evenodd"/><path fill="#000000" fill-opacity="0.0" d="m163.47339 141.51958c8.227585 24.130386 -18.505112 59.663773 -44.32319 62.81053" fill-rule="evenodd"/><path stroke="#000000" stroke-width="4.0" stroke-miterlimit="8.0" stroke-linecap="butt" d="m163.47339 141.51958c8.227585 24.130386 -18.505112 59.663773 -44.32319 62.81053" fill-rule="evenodd"/><path fill="#000000" fill-opacity="0.0" d="m117.748215 238.61311l90.093765 50.867325" fill-rule="evenodd"/><path stroke="#000000" stroke-width="4.0" stroke-miterlimit="8.0" stroke-linecap="butt" d="m117.748215 238.61311l90.093765 50.867325" fill-rule="evenodd"/><path fill="#000000" fill-opacity="0.0" d="m110.58719 250.7448l90.093765 50.867325" fill-rule="evenodd"/><path stroke="#000000" stroke-width="4.0" stroke-miterlimit="8.0" stroke-linecap="butt" d="m110.58719 250.7448l90.093765 50.867325" fill-rule="evenodd"/><path fill="#000000" fill-opacity="0.0" d="m110.58719 149.25446l90.093765 -50.867325" fill-rule="evenodd"/><path stroke="#000000" stroke-width="4.0" stroke-miterlimit="8.0" stroke-linecap="butt" d="m110.58719 149.25446l90.093765 -50.867325" fill-rule="evenodd"/><path fill="#000000" fill-opacity="0.0" d="m117.748215 161.38614l90.093765 -50.867317" fill-rule="evenodd"/><path stroke="#000000" stroke-width="4.0" stroke-miterlimit="8.0" stroke-linecap="butt" d="m117.748215 161.38614l90.093765 -50.867317" fill-rule="evenodd"/><path fill="#000000" d="m108.95262 250.88387l0 0c0 -0.8828583 0.7309952 -1.5985718 1.6327286 -1.5985718l0 0c0.43302155 0 0.8483124 0.16842651 1.1545105 0.46821594c0.30619812 0.29978943 0.47821045 0.7063904 0.47821045 1.1303558l0 0c0 0.88287354 -0.7309952 1.5985718 -1.632721 1.5985718l0 0c-0.9017334 0 -1.6327286 -0.71569824 -1.6327286 -1.5985718z" fill-rule="evenodd"/><path stroke="#000000" stroke-width="1.0" stroke-linejoin="round" stroke-linecap="butt" d="m108.95262 250.88387l0 0c0 -0.8828583 0.7309952 -1.5985718 1.6327286 -1.5985718l0 0c0.43302155 0 0.8483124 0.16842651 1.1545105 0.46821594c0.30619812 0.29978943 0.47821045 0.7063904 0.47821045 1.1303558l0 0c0 0.88287354 -0.7309952 1.5985718 -1.632721 1.5985718l0 0c-0.9017334 0 -1.6327286 -0.71569824 -1.6327286 -1.5985718z" fill-rule="evenodd"/><path fill="#000000" d="m108.95262 149.08658l0 0c0 -0.88287354 0.7309952 -1.5985718 1.6327286 -1.5985718l0 0c0.43302155 0 0.8483124 0.16841125 1.1545105 0.46820068c0.30619812 0.29978943 0.47821045 0.7063904 0.47821045 1.1303711l0 0c0 0.8828583 -0.7309952 1.5985565 -1.632721 1.5985565l0 0c-0.9017334 0 -1.6327286 -0.71569824 -1.6327286 -1.5985565z" fill-rule="evenodd"/><path stroke="#000000" stroke-width="1.0" stroke-linejoin="round" stroke-linecap="butt" d="m108.95262 149.08658l0 0c0 -0.88287354 0.7309952 -1.5985718 1.6327286 -1.5985718l0 0c0.43302155 0 0.8483124 0.16841125 1.1545105 0.46820068c0.30619812 0.29978943 0.47821045 0.7063904 0.47821045 1.1303711l0 0c0 0.8828583 -0.7309952 1.5985565 -1.632721 1.5985565l0 0c-0.9017334 0 -1.6327286 -0.71569824 -1.6327286 -1.5985565z" fill-rule="evenodd"/></g></svg>